<svg width="5388" height="1587" viewBox="0 0 5388 1587" fill="none" xmlns="http://www.w3.org/2000/svg">
<path d="M4342.03 1.14111L4127.63 1458.32L4318.86 1459.75L4348.54 1282.01L4482 275.057H4486.13L4624.15 1234.76H4461.32L4318.86 1459.75H4332.67H4637.53L4854.47 1460.23L4644.35 1.14111H4342.03Z" fill="#EA3323"/>
<path d="M222.329 0H0.625V1460.2H222.329V0Z" fill="black"/>
<path d="M717.463 783.026L527.023 0H326.902V1460.2H527.023V620.2L739.046 1460.2H919.647V0H717.463V783.026Z" fill="black"/>
<path d="M979.628 212.023H1166.1V1460.2H1385.9V212.023H1572.21V0H979.628V212.023Z" fill="black"/>
<path d="M1868.98 816.353H2090.69V594.649H1868.98V212.023H2151.63V0H1647.12V1460.2H2163.37V1238.34H1868.98V816.353Z" fill="black"/>
<path d="M2606.98 0H2247.84V1460.2H2469.55V808.577H2526.52C2597.14 808.577 2608.88 836.032 2608.88 900.781V1340.38C2608.88 1418.94 2608.88 1436.55 2608.88 1460.04H2819.32V1445.28C2819.32 1416.71 2819.32 1386.72 2819.32 1327.84V827.938C2819.32 729.861 2781.55 692.884 2732.51 671.301C2771.71 653.685 2828.68 606.551 2828.68 484.828V225.671C2828.84 62.8452 2754.25 0 2606.98 0ZM2609.04 517.521C2609.04 586.873 2589.36 628.769 2528.58 628.769H2469.7V198.216H2528.58C2595.39 198.216 2609.04 231.861 2609.04 298.991V517.521Z" fill="black"/>
<path d="M3281.12 0H2929.76V1460.2H3151.46V852.378H3281.43C3300.48 852.378 3319.36 849.521 3337.46 843.808C3442.52 810.64 3508.69 692.725 3508.69 586.873V241.383C3508.85 66.654 3438.23 0 3281.12 0ZM3312.22 537.676C3312.22 596.553 3300.48 643.687 3220.02 643.687H3151.46V198.216H3220.02C3297.94 198.216 3312.22 241.383 3312.22 298.356V537.676Z" fill="black"/>
<path d="M3805.95 0H3584.25V1460.2H4076.85V1234.37H3805.95V0Z" fill="black"/>
<path d="M5187.25 0L5089.01 545.611L4986.97 0H4771.14L4971.26 851.743V1460.2H5193.12V853.647L5387.37 0H5187.25Z" fill="black"/>
</svg>
